<?xml version="1.0" encoding="UTF-8"?>
<svg version="1.1" viewBox="0 0 2048 696" width="735" height="250" xmlns="http://www.w3.org/2000/svg">
<path transform="translate(0)" d="m0 0h2048v696h-2048z" fill="#FFFFFF"/>
<path transform="translate(105,315)" d="m0 0 126 1 9 7 7 8 12 12-1 9-12 69-6 2h-34l9 19 12 25 10 21 7 14-1 3h-56l-5-8-19-39-8-16-8-18-1-1-15-1 1-10 4-21h56l6-36 1-7h-68l-1 11-15 87-7 39-3 19-1 1h-58l1-11 8-46 8-44 12-68v-5l-7-10-2-5z" fill="#40070E"/>
<path transform="translate(1809,27)" d="m0 0h19l-5 6-11 8-13 12-9 14-6 16-2 12v21l5 22 6 16 8 17 11 18 15 23 10 16 6 12 4 14v15l-4 12-6 9-7 8-12 9-14 7-12 3h-17l-15-3-16-5-16-8-20-12v-2l10-5 7-6 7-12 2-11-1-15-3-12-9-21-11-25-5-12-4-20-1-17 3-19 5-15 9-17 12-16 8-8 13-9 17-9 17-6 17-4z" fill="#10bc69"/>
<path transform="translate(1905,342)" d="m0 0 82 1 6 5 7 8 2 1v2h2l7 8 2 2-1 13-9 51-7 1h-28l19 38 11 23 4 9-1 1h-51l-10-19-11-24-14-28h-10l-6-1 1-10 3-15 1-1h51l1-10 5-27h-57l-4 20-13 75-7 39-1 1h-51l-1-3 13-72 15-84 1-3z" fill="#40070E"/>
<path transform="translate(705,342)" d="m0 0 7 1 10 9 16 16 1 5-3 19-3 15h20l-1 10-15 83-2 5h-112l-1-2 4-24 5-2h57l1-1 7-41-1-1h-59l-2-1 1-10 3-16 42-1 7-37h-41l2-16 2-10z" fill="#40070E"/>
<path transform="translate(1638,342)" d="m0 0 6 2 25 25-1 13-22 122-1 1h-51l1-12 8-44 2-13 1-2h-62l-1-2 5-25h63l2-16 4-22-46 1-16-1 4-23 1-3z" fill="#40070E"/>
<path transform="translate(836,342)" d="m0 0 52 1-6 37-13 73-4 22-1 2h62l-1 12-3 15-1 1h-82l-9-10-8-7-5-5-5-6 3-19 10-57 7-38 3-19z" fill="#40070E"/>
<path transform="translate(371,342)" d="m0 0h24l1 1-1 11-6 35-12 68-4 20h62l-2 16-3 12h-81l-10-9-16-16-2-3 1-10 13-72 9-51 1-1z" fill="#40070E"/>
<path transform="translate(971,342)" d="m0 0 9 2 24 24 1 6-14 78-9 51-1 2h-51l1-13 6-34 11-62 4-23v-3h-47l-14-1 1-9 3-15 1-2z" fill="#40070E"/>
<path transform="translate(404,343)" d="m0 0h83l6 5 5 6 8 7 7 7 1 5-8 45-13 72-3 14-1 1h-51l4-26 18-102 1-8-23 1-38-1 1-10z" fill="#40070E"/>
<path transform="translate(1104,342)" d="m0 0h29l-1 12-7 40-11 62-7 41-1 8h-53l1-10 9-50 11-62 7-40z" fill="#40070E"/>
<path transform="translate(1502,342)" d="m0 0h49l1 3-8 48-8 44-9 50-3 17-1 1h-51l1-11 6-36 4-21 16-90 1-4z" fill="#40070E"/>
<path transform="translate(1772,342)" d="m0 0 13 1-14 80-14 77-2 5h-51l1-10 17-95 4-23 6-33 1-1z" fill="#40070E"/>
<path transform="translate(1291,343)" d="m0 0h51l-1 10-8 46-10 57-8 45-2 4h-50l-1-4 10-56 8-45 4-23 6-33z" fill="#40070E"/>
<path transform="translate(638,342)" d="m0 0 5 1-21 121-7 38-1 3h-51l-1-4 8-44 12-67 8-46 1-1z" fill="#40070E"/>
<path transform="translate(1328,477)" d="m0 0h76l-1 12-3 15-1 1h-77l1-10 3-17z" fill="#41080E"/>
<path transform="translate(1172,342)" d="m0 0 47 1-1 9-3 17-43 1-35-1 2-16 2-10z" fill="#40070E"/>
<path transform="translate(1130,407)" d="m0 0h66l-2 13-2 12-1 1-17 1h-31l-18-1 2-13z" fill="#41070E"/>
<path transform="translate(793,590)" d="m0 0h12l5 5v54l-4 4-3 1h-10l-5-3-2-6v-42l2-10z" fill="#FEFEFE"/>
<path transform="translate(792,583)" d="m0 0h12l8 3 6 7v57l-4 6-3 3-10 2h-7l-9-3-5-5-2-6v-47l1-8 5-6zm1 7-5 3-2 10v42l2 6 5 3h10l6-3 1-2v-54l-5-5z" fill="#541115"/>
<path transform="translate(679,583)" d="m0 0h12l8 3 4 5 1 2v14l-8 1-1-12-5-5h-10l-4 2-1 2v9l6 8 12 11 9 9 3 6v13l-7 8-8 2h-10l-9-3-4-5-2-7v-9h9l1 12 1 3 4 1h10l5-3 1-2v-8l-6-8-15-14-8-9-1-2v-14l4-6 5-3z" fill="#541115"/>
<path transform="translate(980,583)" d="m0 0 7 1 4 16 9 40 1 8h2l2-12 10-44 3-9h7l-1 10-10 43-6 24-1 1h-9l-2-1-9-37-8-37z" fill="#541115"/>
<path transform="translate(1096,583)" d="m0 0h33v7l-24 1-1 27h14l7 1v6l-21 1 1 27 25 1 1 5v2h-35l-1-69z" fill="#541115"/>
<path transform="translate(1279,583)" d="m0 0h18l1 5-2 2h-3v64h5v7h-19l-1-3v-4h6l-1-63-4-2z" fill="#541115"/>
<path transform="translate(1364,583)" d="m0 0h38l1 1v5l-2 1h-14v70l-7 1-1-3v-68h-11l-3-1z" fill="#541115"/>
<path transform="translate(895,583)" d="m0 0h6l1 1v70h21v7h-29l-1-1v-76z" fill="#531115"/>
<path transform="translate(1104,654)" d="m0 0h26l1 5v2h-35v-2l5-1v-2z" fill="#450A10"/>
<path transform="translate(894,628)" d="m0 0h1v23h2v3l4 1h21v5h-8l4-2v-2l-7 1-2 3h-15z" fill="#41070E"/>
<path transform="translate(1279,583)" d="m0 0h18l1 5-5 1-4-1h-8l-2-1z" fill="#45090F"/>
<path transform="translate(1278,654)" d="m0 0h8l-2 4 11 1v-2l-3-3h6v7h-19l-1-3z" fill="#480B11"/>
<path transform="translate(1104,583)" d="m0 0h25l-1 6h-8l1-3-14-1v2h-3l-1-3z" fill="#490B11"/>
<path transform="translate(932,486)" d="m0 0 1 4h3l2 6-1 5-2 2h-5z" fill="#541115"/>
<path transform="translate(1385,644)" d="m0 0h1v16l-1 1h-5l-1-2 1-7 4-4z" fill="#41070E"/>
<path transform="translate(996,654)" d="m0 0 8 1 4-1v6l-1 1h-9l-2-1z" fill="#44090F"/>
<path transform="translate(911,656)" d="m0 0h7l1 3 2 2h-27v-1l12-1 4-2z" fill="#551416"/>
<path transform="translate(925,479)" d="m0 0 1 4-3 17-3-1-1-6 3-6 1-4z" fill="#551216"/>
<path transform="translate(1367,584)" d="m0 0h33v1h-23v2h-7z" fill="#40070E"/>
<path transform="translate(1123,584)" d="m0 0h6l-1 5h-8l1-3h2z" fill="#40070E"/>
</svg>
